<svg width="100" height="100" viewBox="0 0 100 100" fill="none" xmlns="http://www.w3.org/2000/svg">
<g clip-path="url(#clip0_1_2)">
<circle cx="50" cy="50" r="47" fill="white"/>
<path d="M87.2606 57.92C85.588 65.7886 81.4674 72.9258 75.4892 78.3086C69.511 83.6914 61.9822 87.0434 53.9818 87.8843L50 50L87.2606 57.92Z" fill="#E6D21F"/>
<path d="M53.9818 87.8843C45.9814 88.7252 37.9202 87.0117 30.9535 82.9895C23.9868 78.9673 18.4723 72.8428 15.2003 65.4938L50 50L53.9818 87.8843Z" fill="#19E552"/>
<path d="M15.2003 65.4938C11.9283 58.1448 11.0669 49.9487 12.7394 42.08C14.4119 34.2113 18.5326 27.0741 24.5108 21.6914L50 50L15.2003 65.4938Z" fill="#543AF8"/>
<path d="M24.5108 21.6914C30.489 16.3086 38.0178 12.9565 46.0182 12.1157C54.0186 11.2748 62.0798 12.9883 69.0465 17.0105L50 50L24.5108 21.6914Z" fill="#E32CE7"/>
<path d="M69.0465 17.0105C76.0132 21.0327 81.5277 27.1572 84.7997 34.5062C88.0717 41.8552 88.9331 50.0513 87.2606 57.92L50 50L69.0465 17.0105Z" fill="#FF5B5B"/>
<circle cx="50" cy="50" r="10" fill="white"/>
</g>
<defs>
<clipPath id="clip0_1_2">
<rect width="100" height="100" fill="white"/>
</clipPath>
</defs>
</svg>
